<svg width="20" height="19" viewBox="0 0 20 19" fill="none" xmlns="http://www.w3.org/2000/svg">
<path d="M8 16.6758C4.99963 17.5434 2.49975 16.6758 1 14" stroke="#FFCC79" stroke-width="1.5" stroke-linecap="round" stroke-linejoin="round"/>
<path d="M8.41176 18V15.2444C8.41176 14.7361 8.57412 14.2941 8.83529 13.8946C9.01529 13.6209 8.89176 13.2316 8.56794 13.1466C5.88294 12.4343 4 11.2911 4 7.49852C4 6.51255 4.33529 5.58607 4.92471 4.77859C5.07118 4.578 5.14529 4.4777 5.16294 4.3876C5.18059 4.2958 5.14971 4.17766 5.08794 3.93966C4.83824 2.97409 4.855 1.94816 5.22912 1.02424C5.22912 1.02424 6.00294 0.780294 7.765 1.84022C8.16735 2.08246 8.36853 2.20401 8.54588 2.23121C8.72324 2.25841 8.95971 2.20146 9.43265 2.08756C10.1089 1.92606 10.8033 1.8464 11.5 1.85042C12.1967 1.84755 12.891 1.92749 13.5674 2.08841C14.0403 2.20231 14.2776 2.25841 14.455 2.23206C14.6315 2.20486 14.8326 2.08331 15.235 1.84107C16.9971 0.781144 17.7709 1.02509 17.7709 1.02509C18.145 1.94901 18.1618 2.97494 17.9121 3.94051C17.8503 4.17851 17.8203 4.2975 17.8379 4.3876C17.8556 4.4777 17.9288 4.57885 18.0753 4.77944C18.6647 5.58692 19 6.5134 19 7.49937C19 11.292 17.1171 12.4352 14.4321 13.1458C14.1082 13.2316 13.9847 13.6209 14.1647 13.8938C14.4259 14.2932 14.5882 14.7352 14.5882 15.2444V18" stroke="#FFCC79" stroke-width="1.5" stroke-linecap="round" stroke-linejoin="round"/>
</svg>
