<svg width="47" height="45" viewBox="0 0 47 45" fill="none" xmlns="http://www.w3.org/2000/svg">
<path fill-rule="evenodd" clip-rule="evenodd" d="M31.588 0V5.43596C32.5037 5.86952 33.3828 6.37669 34.2166 6.95249L35.0209 6.48453L38.9143 4.23678L41.161 8.13153L44.7534 14.3685L47 18.2655L43.111 20.5154L42.3068 20.9768C42.3517 21.4874 42.3742 21.9937 42.3742 22.4999C42.3742 23.0062 42.3517 23.5124 42.3068 24.0232L43.111 24.4844L47 26.7345L44.7534 30.6315L41.161 36.8685L38.9144 40.7632L35.0209 38.5155L34.2166 38.0475C33.3828 38.6233 32.5037 39.1304 31.588 39.5639V45H15.4143V39.5639C14.4986 39.1304 13.6196 38.6233 12.7857 38.0475L11.9791 38.5155L8.08796 40.7632L5.84134 36.8685L2.24662 30.6315L0 26.7344L3.89128 24.4844L4.69323 24.0232C4.65035 23.5166 4.62864 23.0084 4.62815 22.4999C4.62815 21.9937 4.65058 21.4874 4.69323 20.9768L3.89117 20.5154L0 18.2655L2.24662 14.3684L5.84134 8.13153L8.08796 4.23678L11.9792 6.48453L12.7857 6.95249C13.6196 6.37669 14.4986 5.86952 15.4143 5.43596V0H31.588ZM27.0947 4.50003H19.9077V8.57249C17.3397 9.23399 15.0481 10.5772 13.2462 12.4155L9.73251 10.3816L6.1379 16.6186L9.65616 18.6526C9.31916 19.8788 9.12139 21.1659 9.12139 22.5001C9.12139 23.8343 9.31916 25.1214 9.65616 26.3475L6.1379 28.3816L9.73251 34.6186L13.2462 32.5845C15.0481 34.4229 17.3397 35.7661 19.9077 36.4276V40.5001H27.0947V36.4276C29.6626 35.7661 31.9542 34.4229 33.756 32.5845L37.2675 34.6186L40.8644 28.3816L37.3462 26.3475C37.6832 25.1214 37.8808 23.8343 37.8808 22.5001C37.8808 21.1658 37.6832 19.8788 37.3462 18.6526L40.8644 16.6186L37.2675 10.3816L33.756 12.4156C31.9542 10.5773 29.6626 9.2341 27.0947 8.5726V4.50003ZM23.5009 13.5C28.4645 13.5 32.4876 17.5291 32.4876 22.4999C32.4876 27.4708 28.4645 31.5 23.5009 31.5C18.5374 31.5 14.5143 27.4709 14.5143 22.4999C14.5143 17.5291 18.5374 13.5 23.5009 13.5ZM23.5009 18C21.019 18 19.0077 20.0145 19.0077 22.4999C19.0077 24.9856 21.019 27 23.5009 27C25.9828 27 27.9942 24.9855 27.9942 22.4999C27.9942 20.0144 25.9828 18 23.5009 18Z" fill="#FFCC79"/>
</svg>
