<svg width="54" height="54" viewBox="0 0 54 54" fill="none" xmlns="http://www.w3.org/2000/svg">
<path d="M13.8937 23.2493C11.1757 24.1673 9.49499 25.4318 9.49499 26.8335C9.49499 28.7415 12.6202 30.4043 17.235 31.266C15.5205 32.1345 14.4967 33.2348 14.4967 34.434C14.4967 37.2308 20.0925 39.4988 26.9955 39.4988C28.6717 39.5021 30.3451 39.3613 31.9972 39.078M17.2372 31.2683C19.6329 31.6959 22.0622 31.9068 24.4957 31.8983C28.3387 31.8983 31.842 31.4123 34.497 30.609M36.9945 22.779C33.8197 23.7173 29.3917 24.3 24.4957 24.3C14.832 24.3 6.99524 22.032 6.99524 19.233C6.99524 17.073 11.6685 15.228 18.2452 14.499" stroke="#FFCC79" stroke-width="2" stroke-linecap="round" stroke-linejoin="round"/>
<path d="M49.5 42.9075C49.5 46.548 39.4268 49.5 27 49.5C14.5733 49.5 4.5 46.548 4.5 42.9075C4.5 40.32 8.34075 38.079 15.75 36.999M42.21 19.773C51.6915 17.3115 53.046 32.076 39.4988 36.999M39.5055 4.5C37.8405 4.77675 34.7063 6.33375 35.505 10.3343C36.306 14.3325 35.172 16.4453 34.506 17.001M29.5043 4.5C27.837 4.833 24.7028 6.7005 25.5038 11.4998C26.3048 16.299 25.1708 17.5838 24.5048 18.2498" stroke="#FFCC79" stroke-width="2" stroke-linecap="round" stroke-linejoin="round"/>
</svg>
